<svg width="2735" height="244" viewBox="0 0 2735 244" fill="none" xmlns="http://www.w3.org/2000/svg">
<path fill-rule="evenodd" clip-rule="evenodd" d="M10.8133 1.44963L2.62783 2.19944L1.31991 42.5892C0.599961 64.8035 0.00799948 117.394 0.00599961 159.459L0 235.94H64.5698L61.68 143.963H161.99V95.9756H63.9959V45.9883H173.989V0L96.4938 0.349911C53.8725 0.541862 15.315 1.03574 10.8133 1.44963ZM192.094 65.4834C192.24 155.155 193.849 179.922 200.471 194.387C214.322 224.633 243.59 240.655 289.627 243.19C337.424 245.822 370.254 231.085 385.979 199.939C394.764 182.542 395.842 169.461 395.912 79.4798L395.974 0H332.252L331.617 83.4788C331.011 162.735 330.777 167.301 326.979 173.746C320.359 184.983 313.56 188.732 298.221 189.598C282.888 190.466 276.644 188.16 267.085 178.107C258.999 169.607 258.211 160.347 258.085 72.4816L257.983 0H191.988L192.094 65.4834ZM419.973 235.94H587.962V190.02L486.968 188.952L485.929 0H419.973V235.94ZM603.961 235.94H773.95V219.194C773.95 209.985 773.388 199.637 772.7 196.2L771.45 189.952H673.956V0H603.961V235.94ZM825.947 10.7033C825.947 16.5918 825.369 26.9392 824.663 33.6974L823.377 45.9883H887.943V225.943H949.938V45.9883H1013.93V0H825.947V10.7033ZM1031.93 225.943H1093.93V0H1031.93V225.943ZM1115.93 225.943H1171.92V143.629C1171.92 98.359 1172.6 61.9642 1173.42 62.752C1174.25 63.5418 1185.27 100.356 1197.92 144.565L1220.92 224.943L1249.42 225.497C1265.09 225.803 1277.92 225.623 1277.92 225.099C1277.92 222.635 1320.1 70.4921 1321.76 66.983C1322.98 64.3976 1323.69 91.8027 1323.78 144.463L1323.91 225.943H1381.91V0H1290.59L1273.88 64.4836C1264.7 99.9506 1255.86 133.466 1254.23 138.965C1250.66 151.104 1253.26 158.57 1230.59 71.2579C1214.69 10.0375 1212.56 3.38114 1208.33 1.77555C1205.76 0.799797 1183.92 0 1159.79 0H1115.93V225.943ZM1411.41 1.43164L1405.91 2.26542V225.943H1583.9V181.954H1465.91V133.966H1571.9V87.9776H1465.91V45.9883H1579.9V0L1498.4 0.299924C1453.58 0.463882 1414.43 0.973752 1411.41 1.43164ZM2044.87 1.91951C2023.46 5.56459 2005.33 15.0742 1990.6 30.3903C1979.24 42.2093 1972.8 53.1845 1966.54 71.4438C1961.79 85.3043 1961.21 89.9931 1961.14 114.971C1961.03 155.706 1968.27 176.781 1989.6 197.878C2011.33 219.356 2036.64 228.6 2073.87 228.646C2118.55 228.702 2150.48 213.682 2170.06 183.401C2183.67 162.353 2186.86 149.328 2186.84 114.971C2186.83 88.8014 2186.23 83.2528 2182.17 71.4498C2171.26 39.7479 2148.52 16.9817 2116.7 5.8885C2103.3 1.21769 2062.3 -1.04773 2044.87 1.91951ZM2593.83 1.99149C2552.84 8.6378 2521.59 38.0823 2510.47 80.5295C2506.11 97.1373 2506.11 132.804 2510.47 149.412C2520.67 188.346 2547.34 214.441 2587.98 225.269C2605.59 229.962 2644.18 229.9 2661.67 225.147C2689.34 217.627 2713.52 200.357 2724.43 180.326C2730.1 169.903 2736.42 148.542 2734.66 145.705C2734.07 144.747 2720.24 143.963 2703.93 143.963H2674.27L2672.92 151.138C2671.01 161.347 2657.28 174.49 2643.87 178.941C2624.8 185.273 2602.89 180.366 2589.01 166.66C2585.83 163.524 2580.91 156.01 2578.06 149.962C2573.35 139.972 2572.88 136.673 2572.86 113.971C2572.84 97.6952 2573.81 86.1881 2575.62 80.9794C2583.86 57.3614 2600.17 45.9883 2625.8 45.9883C2637.58 45.9883 2642.98 46.9981 2649.88 50.4872C2660.75 55.9878 2671.4 69.5883 2673.08 80.1376L2674.34 87.9776L2699.58 87.9496C2713.46 87.9356 2726.85 87.3798 2729.32 86.7179C2734.99 85.1983 2735.09 80.4935 2729.8 63.3859C2721.69 37.1386 2700.71 16.7717 2671.21 6.51434C2659.79 2.54335 2652.32 1.50562 2631.01 0.921766C2616.61 0.529865 2599.88 1.00974 2593.83 1.99149ZM1673.89 224.353L1746.39 223.509C1815.41 222.707 1819.42 222.455 1830.18 218.241C1844.49 212.628 1858.67 200.213 1864.97 187.766C1869.05 179.73 1869.88 175.179 1869.88 160.945C1869.88 135.57 1861.96 123.045 1839.9 113.521L1830.88 109.63L1838.08 105.909C1846.85 101.376 1857.33 89.7712 1861.37 80.1256C1865.64 69.9342 1863.63 46.3682 1857.45 34.2273C1851.89 23.3181 1832.87 9.37562 1820.66 7.27015C1816.38 6.53034 1781.61 5.35064 1743.39 4.64482L1673.89 3.36115V224.353ZM1885.88 224.049L1944.87 222.943L1945.91 3.99898H1885.88V224.049ZM2199.86 223.943H2253.85V151.627C2253.85 111.856 2254.47 79.9317 2255.23 80.6875C2255.98 81.4433 2273.77 113.761 2294.75 152.503L2332.9 222.943L2401.84 224.037V3.99898H2347.46L2348.94 76.2726C2349.96 126.52 2349.77 148.152 2348.32 147.253C2346.39 146.065 2317.99 94.1801 2285.09 31.7599L2271.79 6.53434L2262.54 5.26666C2257.46 4.56884 2241.27 3.99898 2226.58 3.99898H2199.86V223.943ZM2427.84 223.943H2487.84V3.99898H2427.84V223.943ZM1800.61 53.5944C1807.89 64.0997 1807.75 74.4251 1800.21 81.9612C1793.26 88.9114 1784.46 90.425 1755.89 89.5912L1734.89 88.9774L1733.75 45.9883H1795.34L1800.61 53.5944ZM2088.42 48.1078C2098.97 51.037 2108.07 59.7048 2116.05 74.4111C2122.77 86.8019 2122.86 87.3278 2122.86 111.972C2122.86 142.748 2119.44 154.489 2106.78 167.146C2097.67 176.249 2083.37 181.992 2070 181.91C2055.07 181.818 2036.35 168.575 2027.99 152.203C2014.88 126.51 2019.2 80.2696 2036.56 60.5066C2048.06 47.4099 2068.39 42.5472 2088.42 48.1078ZM1797.88 133.47C1811.71 140.378 1815.52 160.753 1805.01 171.596C1798.75 178.053 1788.88 179.852 1759.39 179.906L1733.89 179.954V129.967L1762.39 129.971C1785.51 129.973 1792.2 130.633 1797.88 133.47Z" fill="black"/>
</svg>
