<svg width="722" height="308" viewBox="0 0 722 308" fill="none" xmlns="http://www.w3.org/2000/svg">
<path fill-rule="evenodd" clip-rule="evenodd" d="M397.614 1.50082C397.576 2.32417 390.527 51.871 381.947 111.602C371.461 184.598 367.059 220.444 368.52 220.935C370.647 221.653 468.84 235.816 471.685 235.816C473.57 235.816 478.562 198.102 476.899 196.439C476.197 195.737 461.608 193.141 444.477 190.671C427.345 188.199 413.002 185.851 412.604 185.454C412.204 185.056 417.67 144.74 424.744 95.8623C431.821 46.9869 437.622 6.4589 437.636 5.80142C437.66 4.65233 408.388 -0.00598948 401.178 5.78167e-06C399.255 5.78167e-06 397.65 0.67747 397.614 1.50082ZM251.396 7.7219C239.656 9.52048 229.601 11.451 229.053 12.0125C227.452 13.6512 220.813 235.528 222.32 237.037C223.074 237.788 231.804 237.243 241.719 235.822L259.748 233.238V220.718V208.2L273.241 205.971C280.661 204.746 290.277 203.541 294.609 203.293C302.459 202.844 302.491 202.872 305.665 213.23C307.416 218.943 309.301 224.069 309.855 224.623C311.134 225.902 345.29 220.911 347.007 219.195C349.272 216.929 278.686 5.02603 275.566 4.72427C274.013 4.57439 263.136 5.92332 251.396 7.7219ZM576.993 72.4448C548.321 127.299 491.633 239.255 491.635 241.024C491.637 242.862 521.676 259.797 524.935 259.797C525.936 259.797 542.916 227.894 562.668 188.901C582.42 149.908 599.092 117.983 599.72 117.957C600.346 117.931 601.977 127.517 603.342 139.262C604.707 151.007 606.331 163.139 606.946 166.223L608.068 171.828L633.015 158.599L657.961 145.367L621.557 217.688C601.537 257.463 585.477 290.301 585.871 290.656C587.04 291.72 619.402 307.759 620.376 307.759C621.199 307.759 721.52 110.299 721.52 108.676C721.52 107.367 685.667 89.931 683.079 89.9809C681.681 90.0089 671.095 95.2927 659.55 101.722C648.006 108.153 638.267 113.159 637.909 112.845C637.551 112.533 635.752 101.186 633.911 87.6288L630.565 62.9783L613.573 53.4838C604.228 48.2619 595.524 43.9833 594.231 43.9773C592.937 43.9713 585.181 56.7812 576.993 72.4448ZM73.8395 64.0874C68.892 65.0446 50.2532 73.0083 32.422 81.7874L0 97.7488L29.1716 157.29C45.2137 190.038 67.1888 235.042 78.0015 257.299C88.8162 279.555 98.6573 297.767 99.8727 297.767C101.088 297.767 115.637 290.902 132.203 282.515C163.615 266.607 174.42 258.244 181.514 244.343C186.89 233.807 190.526 213.761 188.957 203.301C185.832 182.482 167.985 157.931 150.732 150.725C144.519 148.129 144.083 147.418 145.856 142.753C148.837 134.913 148.173 113.712 144.621 103.288C135.655 76.9812 102.403 58.5657 73.8395 64.0874ZM277.523 123.746C284.238 146.191 289.733 165.217 289.733 166.025C289.733 166.832 285.009 168.093 279.238 168.825C273.467 169.558 267.168 170.601 265.245 171.147C262.031 172.056 261.747 169.822 261.759 143.523C261.769 117.675 263.608 81.058 264.827 82.4029C265.095 82.6967 270.806 101.3 277.523 123.746ZM98.1715 107.527C105.084 111.494 108.732 118.486 108.732 127.777C108.732 138.621 103.453 145.017 88.1405 152.725L74.5432 159.572L63.8005 137.803C57.8914 125.833 53.4596 115.669 53.9534 115.219C55.9104 113.436 73.1379 105.227 77.8376 103.84C83.8186 102.073 90.9051 103.358 98.1715 107.527ZM133.848 187.874C147.267 194.716 152.251 211.429 145.034 225.38C141.914 231.409 124.061 243.747 118.39 243.791C116.319 243.807 93.8297 199.9 93.8297 195.841C93.8297 193.651 116.243 183.939 121.396 183.895C123.913 183.875 129.516 185.663 133.848 187.874Z" fill="#CCCACB"/>
</svg>
