<svg width="141" height="141" viewBox="0 0 141 141" fill="none" xmlns="http://www.w3.org/2000/svg">
<path fill-rule="evenodd" clip-rule="evenodd" d="M26.2095 0.400807C13.9563 2.22479 3.93459 11.2009 0.920626 23.0501C0.0479084 26.4798 -0.382585 107.202 0.438106 113.418C1.15474 118.842 2.52426 122.729 5.12864 126.726C9.12856 132.865 16.0695 137.84 23.1492 139.64C26.5788 140.513 107.301 140.944 113.518 140.123C118.942 139.406 122.828 138.037 126.825 135.432C132.964 131.432 137.939 124.491 139.739 117.412C140.612 113.982 141.043 33.2601 140.222 27.0434C139.505 21.6194 138.136 17.7333 135.531 13.7359C131.531 7.59677 124.593 2.62417 117.511 0.821098C114.44 0.0386621 31.2122 -0.344395 26.2095 0.400807ZM100.591 36.4969C103.712 44.2948 103.713 53.0372 100.597 62.835C98.7777 68.5549 94.206 78.3568 90.9069 83.6099C90.25 84.6565 89.7124 85.6619 89.7124 85.8445C89.7124 86.2566 78.3374 103.211 77.0031 104.788C76.0406 105.925 75.9121 105.935 62.324 105.935H48.6156L46.1775 90.761C44.837 82.4148 43.5252 74.439 43.263 73.0363C41.6787 64.5672 37.7079 38.984 37.9231 38.6356C38.0649 38.4066 40.1924 38.0577 42.6514 37.8603C45.1104 37.6629 50.2146 37.1819 53.9947 36.7917C57.7748 36.401 61.0188 36.248 61.2034 36.4515C61.3881 36.6551 62.4878 44.7406 63.6471 54.419C66.0674 74.6262 67.266 83.6568 67.568 83.9603C67.8868 84.2806 67.9556 84.1669 71.0645 78.192C79.2418 62.476 81.7278 50.4334 78.6292 41.5517C78.1661 40.2255 77.8886 39.0661 78.012 38.9758C78.135 38.8856 82.1379 38.0399 86.907 37.0963C91.6761 36.1526 96.1519 35.2085 96.8532 34.9979C99.2709 34.2705 99.7825 34.4761 100.591 36.4969Z" fill="#008CFF"/>
</svg>
